<?xml version="1.0" encoding="utf-8"?>
<!-- Svg Vector Icons : http://www.onlinewebfonts.com/icon -->
<!DOCTYPE svg PUBLIC "-//W3C//DTD SVG 1.1//EN" "http://www.w3.org/Graphics/SVG/1.1/DTD/svg11.dtd">
<svg version="1.1" xmlns="http://www.w3.org/2000/svg" xmlns:xlink="http://www.w3.org/1999/xlink" x="0px" y="0px" viewBox="0 0 1000 1000" enable-background="new 0 0 1000 1000" xml:space="preserve">
<metadata> Svg Vector Icons : http://www.onlinewebfonts.com/icon </metadata>
<g><path d="M941,157c14,0,25.7,4.7,35,14c9.3,9.3,14,21,14,35c0,13.8-4.7,25.4-14.1,34.8l-588,588c-9.4,9.4-21,14.1-34.8,14.1s-25.4-4.7-34.8-14.1l-294-294c-9.4-9.4-14.1-21-14.1-34.8c0-14,4.7-25.7,14-35c9.3-9.3,21-14,35-14c13.8,0,25.4,4.7,34.8,14.1L353,724.7l553.2-553.6C915.6,161.7,927.2,157,941,157z"/></g>
</svg>