<?xml version="1.0" encoding="utf-8"?>
<!-- Svg Vector Icons : http://www.onlinewebfonts.com/icon -->
<!DOCTYPE svg PUBLIC "-//W3C//DTD SVG 1.1//EN" "http://www.w3.org/Graphics/SVG/1.1/DTD/svg11.dtd">
<svg version="1.1" xmlns="http://www.w3.org/2000/svg" xmlns:xlink="http://www.w3.org/1999/xlink" x="0px" y="0px" viewBox="0 0 1000 1000" enable-background="new 0 0 1000 1000" xml:space="preserve">
<metadata> Svg Vector Icons : http://www.onlinewebfonts.com/icon </metadata>
<g><g transform="translate(0.000000,511.000000) scale(0.100000,-0.100000)"><path d="M525.2,3750.2c-143.7-49.8-249.1-124.6-314.3-228c-120.7-189.7-113.1,23-109.2-3453.3l5.7-3171.6l49.8-105.4c70.9-153.3,138-220.4,281.7-291.3l128.4-63.2h4436.4h4436.4l128.4,63.2c143.7,70.9,210.8,138,281.7,291.3l49.8,105.4V107.2v3209.9l-63.2,128.4c-70.9,143.7-138,210.8-291.3,281.7l-105.4,49.8l-4407.6,3.8C835.7,3784.7,621,3784.7,525.2,3750.2z M8681.2,2537.2c0-28.7-3641.1-2861.1-3677.5-2861.1c-36.4,0-3677.5,2832.4-3677.5,2861.1c-1.9,17.3,745.5,23,3677.5,23S8683.1,2554.4,8681.2,2537.2z M4745-1665.4c95.8-49.8,136.1-57.5,260.6-57.5c130.3,0,159.1,7.7,272.1,67.1c69,36.4,858.5,638.1,1753.5,1337.6C7928.1,379.4,8665.9,950.4,8671.6,950.4c5.7,0,11.5-741.6,11.5-1648.1v-1648.1H5003.7H1324.3V-688V969.6L2978.1-320.1C3917.1-1052.1,4679.9-1632.8,4745-1665.4z"/></g></g>
</svg>