<?xml version="1.0" encoding="utf-8"?>
<!-- Svg Vector Icons : http://www.onlinewebfonts.com/icon -->
<!DOCTYPE svg PUBLIC "-//W3C//DTD SVG 1.1//EN" "http://www.w3.org/Graphics/SVG/1.1/DTD/svg11.dtd">
<svg version="1.1" xmlns="http://www.w3.org/2000/svg" xmlns:xlink="http://www.w3.org/1999/xlink" x="0px" y="0px" viewBox="0 0 1000 1000" enable-background="new 0 0 1000 1000" xml:space="preserve">
<metadata> Svg Vector Icons : http://www.onlinewebfonts.com/icon </metadata>
<g><g><path d="M132.5,755.8c8.7-8.7,8.7-22.7,0-31.4c-8.7-8.7-22.7-8.7-31.4,0l-84.6,84.6c-8.7,8.7-8.7,22.7,0,31.4c4.3,4.3,10,6.5,15.7,6.5c5.7,0,11.4-2.2,15.7-6.5L132.5,755.8z"/><path d="M690.6,162.2c-19.7,19.7-30.5,45.8-30.5,73.6c0,27.8,10.8,54,30.5,73.6c20.3,20.3,47,30.4,73.6,30.4s53.3-10.1,73.6-30.4c19.7-19.7,30.5-45.8,30.5-73.6c0-27.8-10.8-54-30.5-73.6C797.2,121.6,731.2,121.6,690.6,162.2z M806.5,278.1c-23.3,23.3-61.2,23.3-84.5,0c-11.3-11.3-17.5-26.3-17.5-42.3c0-16,6.2-31,17.5-42.3c11.7-11.7,27-17.5,42.3-17.5c15.3,0,30.6,5.8,42.3,17.5c11.3,11.3,17.5,26.3,17.5,42.3C824,251.8,817.7,266.8,806.5,278.1z"/><path d="M202.4,794.4c-8.7-8.7-22.7-8.7-31.4,0L52.3,913.1c-8.7,8.7-8.7,22.7,0,31.4c4.3,4.3,10,6.5,15.7,6.5c5.7,0,11.4-2.2,15.7-6.5l118.7-118.7C211.1,817.1,211.1,803.1,202.4,794.4z"/><path d="M975.9,39.6c-2.1-7.5-7.9-13.4-15.4-15.4C879.6,1.7,792.1,6.1,707.3,36.7C641.6,60.5,577.7,100.4,532,146.1l-69,69l-249.8,39c-4.6,0.7-8.9,2.9-12.3,6.2L41.2,420c-6.2,6.2-8.2,15.5-5,23.7c3.2,8.2,10.9,13.7,19.7,14.1l157.6,6.6L174,504c-8.7,8.7-8.7,22.7,0,31.4l23.1,23.1L128.2,664c-5.7,8.8-4.5,20.4,2.9,27.8l177.1,177.1c7.4,7.4,19,8.6,27.8,2.9l105.5-68.9l23.1,23.1c8.7,8.7,22.7,8.7,31.4,0l39.5-39.5l6.6,157.6c0.4,8.8,5.9,16.5,14.1,19.7c2.6,1,5.3,1.5,8,1.5c5.8,0,11.4-2.3,15.7-6.5L739.7,799c3.3-3.3,5.5-7.6,6.2-12.3L785,537l69-69c45.7-45.7,85.6-109.6,109.3-175.3C993.9,207.9,998.3,120.4,975.9,39.6z M326.9,824.8L175.2,673.1l53.9-82.7l74.5,74.5l-8.8,8.8c-8.7,8.7-8.7,22.7,0,31.4c8.7,8.7,22.7,8.7,31.4,0l8.8-8.8l74.5,74.5L326.9,824.8z M822.6,436.7l-74.1,74.1c0,0,0,0,0,0l-77.1,77.1c-8.7,8.7-8.7,22.7,0,31.4c8.7,8.7,22.7,8.7,31.4,0l29-29l-28.5,182.6L584.3,891.7l-6.2-147.9l62-62c8.7-8.7,8.7-22.7,0-31.4c-8.7-8.7-22.7-8.7-31.4,0l-68.8,68.8c0,0-0.1,0.1-0.1,0.1l-59.5,59.5l-19.8-19.8c-0.2-0.2-0.5-0.5-0.7-0.7L366.4,665l268.2-268.2c8.7-8.7,8.7-22.7,0-31.4c-8.7-8.7-22.7-8.7-31.4,0L335,633.6l-93.5-93.5c-0.2-0.2-0.4-0.5-0.7-0.7l-19.8-19.8l59.5-59.5c0,0,0.1-0.1,0.1-0.1l68.8-68.8c8.7-8.7,8.7-22.7,0-31.4c-8.7-8.7-22.7-8.7-31.4,0l-62,62l-147.9-6.2l118.9-118.9l182.6-28.5l-29,29l31.4,31.4l76.8-76.8c0.2-0.2,0.3-0.3,0.5-0.5l73.8-73.8c61.7-61.7,208.2-153.1,373-113.7C975.7,228.4,884.3,375,822.6,436.7z"/><path d="M244.2,867.5l-84.6,84.6c-8.7,8.7-8.7,22.7,0,31.4c4.3,4.3,10,6.5,15.7,6.5s11.4-2.2,15.7-6.5l84.6-84.6c8.7-8.7,8.7-22.7,0-31.4C266.9,858.9,252.8,858.9,244.2,867.5z"/></g><g></g><g></g><g></g><g></g><g></g><g></g><g></g><g></g><g></g><g></g><g></g><g></g><g></g><g></g><g></g></g>
</svg>