<?xml version="1.0" encoding="utf-8"?>
<!-- Svg Vector Icons : http://www.onlinewebfonts.com/icon -->
<!DOCTYPE svg PUBLIC "-//W3C//DTD SVG 1.1//EN" "http://www.w3.org/Graphics/SVG/1.1/DTD/svg11.dtd">
<svg version="1.1" xmlns="http://www.w3.org/2000/svg" xmlns:xlink="http://www.w3.org/1999/xlink" x="0px" y="0px" viewBox="0 0 1000 1000" enable-background="new 0 0 1000 1000" xml:space="preserve">
<metadata> Svg Vector Icons : http://www.onlinewebfonts.com/icon </metadata>
<g><g transform="translate(0.000000,512.000000) scale(0.100000,-0.100000)"><path d="M712.5,579.4v-4440.6H406.2H100v-153.1v-153.1h306.2h306.2v-306.3V-4780h153.1h153.1v306.3v306.3h4440.6H9900v153.1v153.1H5459.4H1018.7V579.4V5020H865.6H712.5V579.4z"/><path d="M8675,3641.9v-153.1h195.2h197.1L7765.8,2187.2L6464.3,885.6H5392.4H4320.5l-325.4-325.4l-325.4-325.4l111-109.1l109.1-111L4173.1,298l281.4,281.4h1071.9h1071.9l1343.7,1343.7l1345.6,1345.6v-197.1v-195.2h153.1h153.1v459.4V3795h-459.4H8675V3641.9z"/><path d="M1631.2,3335.6v-153.1h960.9h962.8l491.9-491.9l493.8-493.8l493.8,493.8l491.9,491.9h315.8H6158l511.1-511.1l513-513l109.1,111l111,109.1l-555.1,555.1L6292,3488.7h-449.8h-449.8l-424.9-424.9L4540.6,2637l-426.8,426.8l-424.9,424.9H2659.1H1631.2V3335.6z"/><path d="M8062.5,1488.6l-105.3-105.3l555.1-555.1l555.1-555.1h-197.1H8675V120V-33.1h459.4h459.4v459.4v459.4h-153.1h-153.1V690.4V493.2l-551.3,551.2c-302.4,302.4-555.1,549.3-558.9,549.3C8171.6,1593.8,8119.9,1546,8062.5,1488.6z"/><path d="M1784.4,1335.4l-105.3-105.3L3263.9-354.7l1582.9-1582.9l535.9,535.9l535.9,535.9L6269-1216l348.4-348.4h1225h1225l-172.3-172.3l-172.3-172.3l111-109.1l109.1-111l359.8,359.8l357.9,357.9l-357.9,357.9L8943-693.5l-109.1-111l-111-109.1l172.3-172.3l172.3-172.3h-1158h-1158L6336-842.8l-417.3,417.3l-535.9-535.9l-535.9-535.9l-1470,1470C2569.1,780.4,1905,1440.7,1899.2,1440.7S1841.8,1392.9,1784.4,1335.4z"/><path d="M2282-1152.9l-602.9-602.9l111-109.1l109.1-111l606.8,606.8l608.7,608.7l-105.3,105.3c-57.4,57.4-109.1,105.3-114.8,105.3S2613.2-821.7,2282-1152.9z"/><path d="M1325-3401.9V-3555h153.1h153.1v153.1v153.1h-153.1H1325V-3401.9z"/><path d="M1937.5-3401.9V-3555h153.1h153.1v153.1v153.1h-153.1h-153.1V-3401.9z"/><path d="M2550-3401.9V-3555h153.1h153.1v153.1v153.1h-153.1H2550V-3401.9z"/><path d="M3162.5-3401.9V-3555h153.1h153.1v153.1v153.1h-153.1h-153.1V-3401.9z"/><path d="M3775-3401.9V-3555h153.1h153.1v153.1v153.1h-153.1H3775V-3401.9z"/><path d="M4387.5-3401.9V-3555h153.1h153.1v153.1v153.1h-153.1h-153.1V-3401.9z"/><path d="M5000-3401.9V-3555h153.1h153.1v153.1v153.1h-153.1H5000V-3401.9z"/><path d="M5612.5-3401.9V-3555h153.1h153.1v153.1v153.1h-153.1h-153.1V-3401.9z"/><path d="M6225-3401.9V-3555h153.1h153.1v153.1v153.1h-153.1H6225V-3401.9z"/><path d="M6837.5-3401.9V-3555h153.1h153.1v153.1v153.1h-153.1h-153.1V-3401.9z"/><path d="M7450-3401.9V-3555h153.1h153.1v153.1v153.1h-153.1H7450V-3401.9z"/><path d="M8062.5-3401.9V-3555h153.1h153.1v153.1v153.1h-153.1h-153.1V-3401.9z"/><path d="M8675-3401.9V-3555h153.1h153.1v153.1v153.1h-153.1H8675V-3401.9z"/><path d="M9287.5-3401.9V-3555h153.1h153.1v153.1v153.1h-153.1h-153.1V-3401.9z"/></g></g>
</svg>