<?xml version="1.0" encoding="utf-8"?>
<!-- Svg Vector Icons : http://www.onlinewebfonts.com/icon -->
<!DOCTYPE svg PUBLIC "-//W3C//DTD SVG 1.1//EN" "http://www.w3.org/Graphics/SVG/1.1/DTD/svg11.dtd">
<svg version="1.1" xmlns="http://www.w3.org/2000/svg" xmlns:xlink="http://www.w3.org/1999/xlink" x="0px" y="0px" viewBox="0 0 1000 1000" enable-background="new 0 0 1000 1000" xml:space="preserve">
<metadata> Svg Vector Icons : http://www.onlinewebfonts.com/icon </metadata>
<g><path d="M680.7,328.1c-14,0-25.3,9.3-25.3,20.8v90.3c16.4-5.1,33.3-8.8,50.6-11.2v-79.1C706,337.5,694.6,328.1,680.7,328.1z M591.2,294.7c-28.5-98.6-119.6-171-227.3-171c-107.8,0-198.8,72.4-227.3,171.2c-25.2,2-45,19.5-45,40.7v117c0,22.6,22.3,40.9,49.9,40.9c8.6,0,16.7-1.8,23.8-4.9c42.2,65.1,115.4,108.3,198.7,108.3c44.5,0,86.1-12.5,121.7-33.9c37.8-53.7,91.3-95.4,154-118.4v-109C639.5,313.4,618,295.4,591.2,294.7z M681,286.4c0-143.3-142.1-259.8-316.6-259.8c-173.8,0-315.3,115.6-316.5,258c-0.1,0.6-0.5,1.2-0.5,1.8c0,8.7,8.6,15.8,19.2,15.8s19.2-7.1,19.2-15.8c0-0.4-0.2-0.7-0.3-1.1C86.3,159.7,211,57.6,364.3,57.6c152.9,0,277.3,101.5,278.8,226.7c-0.1,0.7-0.5,1.4-0.5,2.2c0,8.7,8.6,15.8,19.2,15.8C672.4,302.2,681,295.2,681,286.4z M443.9,644.6c-25.4,7.4-52.2,11.5-80.1,11.5c-69.2,0-132-24.7-182.4-64.5C85.8,652.4,19.1,759.4,10,883.2h445.1c-18.4-40.7-28.7-85.9-28.7-133.5C426.4,712.9,432.6,677.6,443.9,644.6z M47.4,460c14,0,25.3-9.3,25.3-20.8v-90.3c0-11.5-11.3-20.8-25.3-20.8c-14,0-25.3,9.3-25.3,20.8v90.3C22.1,450.8,33.4,460,47.4,460z"/><path d="M565.5,968.8c0,0,13.1,10.4,41.2,0l207.9-235v-4.6l-32.4-27.5h-4.6L547.1,904.8c0,0-16.4,15-4.6,36.9L565.5,968.8L565.5,968.8z"/><path d="M565.1,929.9c0,4.7,1.9,9.4,5.3,12.8c3.3,3.3,8,5.3,12.8,5.3c4.7,0,9.4-1.9,12.8-5.3c3.3-3.4,5.3-8.1,5.3-12.8"/><path d="M957.4,918c0,0,15.9-16.7,0-32L846.8,775.5c0,0-12.5-10.2-22.9,0c-10.4,10.2-13.8,14.1-13.8,14.1h-4.8L634.6,614h-4.4v-41.5l-69.3-41.3l-32.2,36.5l41.4,64.8l41.7-0.2l0.2,4.4l170.3,175.4v4.8l-9.2,9.3c0,0-15.6,12.7-0.2,27.5c15.4,14.8,111,115.3,111,115.3s12.7,9.4,22.7,0C912.1,963.7,957.4,918,957.4,918L957.4,918z"/><path d="M814.7,733.8h8.9c0,0,53,27.7,97.2,4c0,0,41.2-20.8,60-59.1c0,0,9.2-15.3,9.2-49.6c0,0,0.9-62.9-18.2-38.1c-19,24.8-59.7,68.3-59.7,68.3l-9.8,1.2l-59.1-60l-0.9-9.5l64-59.9c0,0,35.5-18.8-31.4-18.8c0,0-111,6.6-115.6,113.6c0,0-4,38.9,18.2,66l0.1,9.7L814.7,733.8L814.7,733.8z"/></g>
</svg>