<?xml version="1.0" encoding="utf-8"?>
<!-- Svg Vector Icons : http://www.onlinewebfonts.com/icon -->
<!DOCTYPE svg PUBLIC "-//W3C//DTD SVG 1.1//EN" "http://www.w3.org/Graphics/SVG/1.1/DTD/svg11.dtd">
<svg version="1.1" xmlns="http://www.w3.org/2000/svg" xmlns:xlink="http://www.w3.org/1999/xlink" x="0px" y="0px" viewBox="0 0 1000 1000" enable-background="new 0 0 1000 1000" xml:space="preserve">
<metadata> Svg Vector Icons : http://www.onlinewebfonts.com/icon </metadata>
<g><g transform="translate(0.000000,511.000000) scale(0.100000,-0.100000)"><path d="M4884.4,4959.1c-33.3-41.2-41.1-80.3-41.1-184.2v-133.2l-150.9-13.7c-1005.1-86.2-1861.3-478.1-2549.1-1167.8C1432.1,2749,1018.7,1812.4,969.7,805.3l-11.7-258.6l50.9-50.9c33.3-33.3,72.5-50.9,113.6-50.9c56.8,0,103.8,39.2,384,317.4l319.4,317.4l319.4-317.4c286.1-284.1,327.2-317.4,386-317.4c58.8,0,99.9,33.3,386,317.4l319.4,317.4L3556,762.2c286.1-284.1,327.2-317.4,386-317.4c58.8,0,98,33.3,374.2,305.7l307.6,305.7l109.7-164.6l109.7-164.6l-3.9-2057.3l-5.9-2055.3l-60.7-127.4c-176.3-368.3-591.7-523.1-999.3-370.3c-84.2,31.4-146.9,76.4-235.1,162.6c-137.2,137.1-197.9,272.3-217.5,480c-9.8,96-23.5,139.1-56.8,172.4c-101.9,101.9-262.5,21.6-262.5-129.3c0-252.7,121.5-519.2,331.1-728.8c346.8-346.8,799.4-425.2,1222.6-211.6c156.7,80.3,393.8,317.4,480,480c127.4,243,121.5,145,121.5,2368.8V728.9l109.7,164.6l109.7,162.6l307.6-305.7c276.3-272.3,315.5-305.7,374.2-305.7c58.8,0,99.9,33.3,386,317.4l319.4,317.4l319.4-317.4c286.1-284.1,327.2-317.4,386-317.4c58.8,0,99.9,33.3,386,317.4l319.4,317.4l319.4-317.4c280.2-278.2,327.2-317.4,384-317.4c41.2,0,80.3,17.6,113.7,50.9l50.9,50.9l-11.8,258.6c-92.1,1908.4-1510.6,3493.5-3383.7,3781.5c-101.9,15.7-254.7,33.3-337,41.1l-152.8,13.7v133.2c0,170.5-43.1,235.1-156.7,235.1C4941.2,5010,4915.7,4998.3,4884.4,4959.1z M5411.4,4304.6C7151.3,4124.4,8464.1,2843,8695.3,1101.2l11.8-98l-233.2,231.2c-203.8,197.9-242.9,229.2-299.8,229.2c-56.8,0-101.9-37.2-384-317.4l-321.3-317.4l-319.4,317.4c-286.1,284.1-327.2,317.4-386,317.4s-99.9-33.3-386-317.4L6058,828.8l-319.4,317.4c-409.5,405.6-413.4,407.5-613.3,103.8c-62.7-98-119.5-178.3-125.4-178.3s-62.7,80.3-125.4,178.3c-199.9,303.7-203.8,301.7-613.3-103.8L3942,828.8l-319.4,317.4c-286.1,284.1-327.2,317.4-386,317.4s-99.9-33.3-386-317.4l-319.4-317.4l-299.8,295.8c-162.6,162.6-317.4,305.6-340.9,317.4c-90.1,45.1-125.4,27.4-362.5-207.7c-127.4-125.4-231.2-215.5-231.2-199.8c0,13.7,13.7,107.8,29.4,203.8c248.8,1524.3,1377.4,2705.8,2872.4,3005.6C4580.7,4320.3,5033.3,4343.8,5411.4,4304.6z"/><path d="M6918.2,231.2c-54.9-56.8-56.8-62.7-56.8-264.5s-2-207.7-43.1-207.7c-78.4,0-419.3-127.4-529-197.9C5791.5-756.3,5623-1301,5887.6-1745.7c117.6-197.9,415.4-376.2,772-462.4l192-45.1l5.9-838.6l3.9-836.6l-52.9,13.7c-223.3,54.9-521.2,295.9-619.1,499.6c-54.9,113.6-111.7,337-111.7,446.7c0,86.2-25.5,131.3-94,158.7c-70.5,29.4-147,3.9-192-66.6c-58.8-92.1-9.8-376.2,113.7-636.8c66.6-139.1,107.8-195.9,258.6-342.9c186.2-184.2,366.4-297.8,595.6-372.3l101.9-33.3v-209.6c0-184.2,5.9-219.4,41.1-264.5c56.8-72.5,174.4-72.5,231.2,0c35.3,45.1,41.2,80.4,41.2,246.9c0,170.4,3.9,193.9,31.3,184.2c17.6-5.9,64.7-11.8,107.8-11.8h76.4v-166.5c0-237.1,39.2-303.7,178.3-303.7c111.7,0,135.2,52.9,135.2,292v213.6l141.1,35.3c311.5,74.5,634.8,290,781.8,519.2c205.7,321.3,233.2,821,62.7,1114.9c-133.2,227.3-429.1,417.3-799.4,515.3l-176.3,47l-5.9,740.6l-3.9,738.7l52.9-13.7c147-35.3,348.8-154.8,476.1-282.1c148.9-148.9,221.4-284.1,264.5-482c31.3-152.8,60.7-186.2,166.5-186.2c131.3,0,174.4,96,127.4,278.2c-111.7,444.8-476.1,820.9-940.5,967.9l-137.1,43.1l-9.8,227.3c-7.9,180.3-17.6,233.2-43.1,260.6c-49,49-162.6,43.1-217.5-9.8c-37.2-39.2-43.1-68.6-49-239l-7.8-195.9h-105.8h-105.8v188.1c0,180.3-2,190.1-56.8,244.9c-31.3,31.4-76.4,56.8-99.9,56.8C6994.6,288.1,6949.5,262.6,6918.2,231.2z M7390.4-1261.8v-746.5l-43.1,11.8c-25.5,5.9-74.4,11.8-107.8,11.8h-64.6v734.7v734.7h107.8h107.8V-1261.8z M6861.3-1240.2c0-797.4,31.3-723-260.6-625c-211.6,70.6-372.3,170.5-452.6,286.1c-50.9,72.5-58.8,105.8-66.6,244.9c-5.9,133.2,0,184.2,35.3,274.3c78.4,209.7,282.1,378.2,568.2,468.3C6879-529,6861.3-462.4,6861.3-1240.2z M7329.6-2310l60.7-11.8v-840.5v-840.5h-76.4c-150.9,0-139.1-72.5-139.1,864v840.6h47C7247.3-2298.2,7296.3-2304.1,7329.6-2310z M8003.6-2458.9c174.4-66.6,288-147,380.1-266.5c88.2-115.6,109.7-213.6,99.9-438.9c-7.8-172.4-17.6-207.7-82.3-337c-74.5-154.8-172.4-256.7-315.4-331.1c-96-49-346.8-131.3-366.4-117.6c-9.8,3.9-15.7,360.5-15.7,793.5v783.7l74.5-13.7C7817.5-2394.3,7919.4-2425.6,8003.6-2458.9z"/></g></g>
</svg>