<?xml version="1.0" encoding="utf-8"?>
<!-- Svg Vector Icons : http://www.onlinewebfonts.com/icon -->
<!DOCTYPE svg PUBLIC "-//W3C//DTD SVG 1.1//EN" "http://www.w3.org/Graphics/SVG/1.1/DTD/svg11.dtd">
<svg version="1.1" xmlns="http://www.w3.org/2000/svg" xmlns:xlink="http://www.w3.org/1999/xlink" x="0px" y="0px" viewBox="0 0 1000 1000" enable-background="new 0 0 1000 1000" xml:space="preserve">
<metadata> Svg Vector Icons : http://www.onlinewebfonts.com/icon </metadata>
<g><path d="M315.5,656.9c0-27.4,2.9-54.1,8.2-79.9H28.3v103.2h288C315.8,672.5,315.5,664.7,315.5,656.9z"/><path d="M569.1,299.9v-27.7v-0.8H28.3v103.2h409.6C475.6,340.4,520.2,314.6,569.1,299.9z"/><path d="M391.8,425.4H28.3v103.2H337C350,490.9,368.7,456.2,391.8,425.4z"/><path d="M390.6,886.8H28.3V990h471.2h11.1C463.7,965.5,422.8,930,390.6,886.8z"/><path d="M322.5,730.9H28.3v103.2h329.6C341.5,802.2,329.5,767.5,322.5,730.9z"/><path d="M662.6,326.7c-170.8,0-309.2,147.8-309.2,330.2c0,182.3,138.4,330.1,309.2,330.1c170.7,0,309.1-147.8,309.1-330.1C971.7,474.5,833.3,326.7,662.6,326.7z M662.6,929.1c-140.6,0-255-122.1-255-272.2c0-150.1,114.4-272.3,255-272.3s255,122.1,255,272.3C917.6,807,803.2,929.1,662.6,929.1z"/><path d="M662.6,442.5c-110.7,0-200.8,96.2-200.8,214.4c0,118.2,90.1,214.3,200.8,214.3c110.7,0,200.8-96.1,200.8-214.3C863.4,538.7,773.3,442.5,662.6,442.5z M682.9,792.8v45.7h-41.1v-42.2c-27.8-1.3-54.8-9.7-70.6-19.1l12.4-51.9c17.4,10.2,42,19.5,69,19.5c24.1,0,40.3-10.2,40.3-27.5c0-16.9-13.3-27.5-44.4-38.6c-44.5-16-74.8-38.2-74.8-81.2c0-39.5,25.8-70.1,70.2-79v-42.2h40.7v39.1c27.4,0.9,46.1,7.5,60.6,14.7l-12.4,50.1c-10.4-5.3-29.9-15.5-59.8-15.5c-27,0-35.7,12.8-35.7,25.3c0,14.2,14.5,24,50.2,37.7c49.4,18.6,69,43,69,83.4C756.4,750.7,730.7,784.4,682.9,792.8z"/><path d="M597.1,254.9c63.3,0,114.7-54.8,114.7-122.4C711.8,64.8,660.4,10,597.1,10c-63.3,0-114.6,54.8-114.6,122.5C482.4,200.1,533.8,254.9,597.1,254.9z M597.1,31.5c52.2,0,94.6,45.3,94.6,101c0,55.7-42.4,101-94.6,101c-52.1,0-94.6-45.3-94.6-101C502.5,76.8,545,31.5,597.1,31.5z"/><path d="M597.1,211.9c41.1,0,74.5-35.7,74.5-79.5c0-43.8-33.4-79.5-74.5-79.5c-41.1,0-74.5,35.7-74.5,79.5C522.6,176.3,556,211.9,597.1,211.9z M591.8,140.6c-16.5-5.9-27.7-14.1-27.7-30.1c0-14.6,9.5-26,26-29.3V65.5h15.1V80c10.2,0.3,17.1,2.8,22.5,5.4l-4.6,18.6c-3.8-2-11.1-5.8-22.2-5.8c-10,0-13.3,4.8-13.3,9.4c0,5.3,5.4,8.9,18.7,14c18.3,6.9,25.6,16,25.6,31c0,14.6-9.6,27.2-27.3,30.3v17h-15.2v-15.6c-10.3-0.5-20.4-3.6-26.2-7.1l4.6-19.3c6.5,3.8,15.6,7.2,25.6,7.2c8.9,0,14.9-3.8,14.9-10.2C608.3,148.6,603.4,144.7,591.8,140.6z"/><path d="M786.2,329c45.2,0,81.8-39.1,81.8-87.4c0-48.2-36.6-87.4-81.8-87.4c-45.2,0-81.8,39.1-81.8,87.4C704.4,289.9,741,329,786.2,329z M786.2,169.6c37.2,0,67.4,32.3,67.4,72c0,39.7-30.3,72-67.4,72c-37.2,0-67.5-32.3-67.5-72C718.8,201.9,749,169.6,786.2,169.6z"/><path d="M786.2,298.4c29.3,0,53.1-25.4,53.1-56.7s-23.8-56.7-53.1-56.7c-29.3,0-53.1,25.4-53.1,56.7S756.9,298.4,786.2,298.4z M782.5,247.4c-11.8-4.2-19.8-10.1-19.8-21.5c0-10.5,6.8-18.6,18.6-20.9v-11.2H792v10.3c7.3,0.2,12.2,2,16.1,3.9l-3.3,13.3c-2.7-1.4-7.9-4.1-15.8-4.1c-7.1,0-9.5,3.4-9.5,6.7c0,3.8,3.9,6.4,13.3,10c13.1,4.9,18.2,11.4,18.2,22.1c0,10.5-6.8,19.4-19.5,21.6v12.1h-10.9v-11.2c-7.3-0.4-14.5-2.6-18.7-5l3.3-13.7c4.6,2.7,11.1,5.2,18.2,5.2c6.4,0,10.7-2.7,10.7-7.3C794.2,253.2,790.7,250.4,782.5,247.4z"/></g>
</svg>