<?xml version="1.0" encoding="utf-8"?>
<!-- Svg Vector Icons : http://www.onlinewebfonts.com/icon -->
<!DOCTYPE svg PUBLIC "-//W3C//DTD SVG 1.1//EN" "http://www.w3.org/Graphics/SVG/1.1/DTD/svg11.dtd">
<svg version="1.1" xmlns="http://www.w3.org/2000/svg" xmlns:xlink="http://www.w3.org/1999/xlink" x="0px" y="0px" viewBox="0 0 1000 1000" enable-background="new 0 0 1000 1000" xml:space="preserve">
<metadata> Svg Vector Icons : http://www.onlinewebfonts.com/icon </metadata>
<g><path d="M769.7,674.4V990H373V876.2h-58.3c-80.9,0-146.6-65.6-146.6-146.7V625.6h-49.9c-16.6,0-30.1-13.5-30.1-30c0-4.2,0.7-8.1,2.2-11.7l77.7-195.6c0,0,8-81,15.3-112.1C215.8,136.7,371.4,10,540.1,10c205.3,0,371.7,166.5,371.7,371.9C911.8,500.6,856.3,606.3,769.7,674.4L769.7,674.4z M259.4,379.4c-22.7,0-41.3,18.6-41.3,41.4c0,23,18.6,41.6,41.3,41.6c23,0,41.7-18.6,41.7-41.6C301.1,398,282.4,379.4,259.4,379.4z M619.6,289.2c0,21.7,17.6,39.2,39.1,39.2c21.6,0,39.1-17.5,39.1-39.2c0-21.8-17.5-39.3-39.1-39.3C637.2,249.9,619.6,267.4,619.6,289.2z M323.7,246.7c0,21.7,17.6,39.2,39.3,39.2c21.7,0,39.3-17.6,39.3-39.2c0-21.7-17.6-39.3-39.3-39.3C341.3,207.4,323.7,224.9,323.7,246.7z M788.4,332.8l56.9-9.8v-54.8l-54.8-9.4c-2.6-9.9-6.3-19.5-11-28.5l33.2-47.2l-38.5-38.7l-45.5,32.1c-6.8-4-13.9-7.5-21.5-10.3c-2.1-0.8-4.3-1.4-6.4-2l-9.9-56.9H636l-9.2,54.8c-10,2.6-19.6,6.3-28.7,11.1l-47.1-33.3l-38.9,38.8l32.3,45.4c-4,6.8-7.6,14-10.4,21.7c-0.8,2.1-1.4,4.3-2,6.4l-47,8.1V234l-35.9-6.2c-1.6-6.3-4.1-12.2-7-17.9l22-31.1l-25.4-25.4l-29.9,21.1c-4.4-2.5-8.9-4.9-13.8-6.8c-1.3-0.5-2.6-0.6-3.9-1l-6.5-37.5h-35.7l-6.3,35.9c-6.3,1.7-12.3,4.1-18,7.1l-31.1-21.9L268,175.9l21.2,29.9c-2.5,4.3-4.9,8.8-6.7,13.8c-0.5,1.3-0.8,2.6-1.2,3.9l-37.2,6.4v35.9l36.1,6.2c1.6,6.2,3.9,12.2,6.8,17.9L265,321l25.3,25.4l30-21.2c4.4,2.6,8.9,4.9,13.8,6.8c1.3,0.5,2.6,0.6,3.8,1l6.5,37.5l35.7,0l6.3-35.9c6.3-1.7,12.2-4.1,18-7.1l31,21.9L461,324L439.8,294c2.5-4.3,4.9-8.8,6.7-13.7c0.5-1.3,0.6-2.6,1.1-4l27.6-4.8v45l54.7,9.4c2.6,10,6.3,19.6,11.1,28.7l-33.2,47l38.6,38.7l45.5-32.1c6.8,4,13.9,7.5,21.6,10.3c2.1,0.8,4.3,1.4,6.4,2l9.9,56.9h47.5l-3.9,22.8c-6.9,1.6-13.3,4.3-19.4,7.7L631.2,492l-17.8,17.8l15.4,21.8c-2.6,4.2-4.9,8.7-6.7,13.5c-0.7,1.9-1,3.9-1.5,5.8l-27.6,4.7v25.1l26.4,4.6c1.5,6.9,4.2,13.4,7.7,19.5L611,627.5l17.8,17.9l21.8-15.4c4.2,2.7,8.7,5,13.5,6.8c1.9,0.7,3.9,1,5.9,1.5l4.5,27.4h25.2l4.6-26.3c6.9-1.5,13.4-4.2,19.5-7.7l22.6,16l17.9-17.8l-15.4-21.6c2.7-4.2,5-8.7,6.8-13.6c0.7-1.9,1-3.8,1.5-5.8l27.3-4.7v-25.2l-26.3-4.5c-1.5-6.9-4.2-13.4-7.7-19.5l16-22.7l-17.8-17.8l-21.7,15.3c-4.2-2.6-8.6-4.9-13.5-6.8c-1.9-0.7-3.7-0.9-5.6-1.4l-4.8-27.4h-18l8.7-51.3c10-2.5,19.5-6.3,28.6-11l47.2,33.3l38.7-38.7l-32.1-45.5c4-6.8,7.5-14,10.4-21.6C787.3,337.1,787.8,334.9,788.4,332.8L788.4,332.8z M649.5,571.5c0,21.7,17.6,39.3,39.3,39.3c21.6,0,39.1-17.5,39.1-39.3c0-21.7-17.5-39.2-39.1-39.2C667.2,532.3,649.5,549.8,649.5,571.5z"/></g>
</svg>